# xmcd
#
# Track frame offsets: 
#        150
#        18961
#        38857
#        57101
#        75743
#        96256
#        114133
#        136428
#        155949
#        186502
#        214800
#        235738
#        255861
#        272209
#
# Disc length: 3856 seconds
#
# Revision: 0
# Processed by: cddbd v1.5.2PL0 Copyright (c) Steve Scherf et al.
# Submitted via: ExactAudioCopy v1.3
#
DISCID=bd0f0e0e
DTITLE=Rockin' Johnny and Quique Gomez - Dos Hombres Wanted
DYEAR=2019
DGENRE=Blues
TTITLE0=Your Charm Won't Help You
TTITLE1=Take It Like It Is
TTITLE2=You Can't Steal My Sugar
TTITLE3=The Jinx
TTITLE4=Funny But True
TTITLE5=Ain't No High Roller
TTITLE6=Everybody Loves My Baby
TTITLE7=Coffee Can Blues
TTITLE8=Livin Day To Day
TTITLE9=Otro Hombre
TTITLE10=Step It Up Bro
TTITLE11=The Right To Hurt Me
TTITLE12=Are You Ever
TTITLE13=Don't Blame Shorty
EXTD=
EXTT0=
EXTT1=
EXTT2=
EXTT3=
EXTT4=
EXTT5=
EXTT6=
EXTT7=
EXTT8=
EXTT9=
EXTT10=
EXTT11=
EXTT12=
EXTT13=
PLAYORDER=
